<?xml version="1.0" standalone="no"?><!DOCTYPE svg PUBLIC "-//W3C//DTD SVG 1.1//EN" "http://www.w3.org/Graphics/SVG/1.1/DTD/svg11.dtd"><svg t="1571705407842" class="icon" viewBox="0 0 1024 1024" version="1.1" xmlns="http://www.w3.org/2000/svg" p-id="5218" xmlns:xlink="http://www.w3.org/1999/xlink" width="64" height="64"><defs><style type="text/css"></style></defs><path d="M510.750543 126.884852c-211.994252 0-383.846248 171.851996-383.846248 383.846248 0 211.989135 171.851996 383.841132 383.846248 383.841132 211.989135 0 383.841132-171.851996 383.841132-383.841132C894.591675 298.736848 722.739678 126.884852 510.750543 126.884852L510.750543 126.884852zM510.750543 860.787778c-193.33938 0-350.061794-156.725484-350.061794-350.056678 0-193.33631 156.721391-350.061794 350.061794-350.061794 193.331193 0 350.056678 156.725484 350.056678 350.061794C860.808244 704.062294 704.081737 860.787778 510.750543 860.787778L510.750543 860.787778zM510.750543 860.787778" p-id="5219" data-spm-anchor-id="a313x.7781069.0.i3" class="selected" fill="#f4ea2a"></path><path d="M510.750543 573.10366c-108.647489 0-148.742672 57.57837-148.742672 57.57837l0 23.987321c0 0 33.429367-57.574277 148.742672-57.574277 115.309212 0 148.737556 57.574277 148.737556 57.574277l0-23.987321C659.488099 630.68203 619.398032 573.10366 510.750543 573.10366L510.750543 573.10366zM510.750543 573.10366" p-id="5220" data-spm-anchor-id="a313x.7781069.0.i4" class="selected" fill="#f4ea2a"></path><path d="M393.19722 419.565774c-17.22736 0-31.188326 13.96199-31.188326 31.18935 0 17.222243 13.960966 31.184233 31.188326 31.184233 17.223267 0 31.188326-13.96199 31.188326-31.184233C424.384523 433.527764 410.420487 419.565774 393.19722 419.565774L393.19722 419.565774zM628.299773 419.565774c-17.223267 0-31.184233 13.96199-31.184233 31.18935 0 17.222243 13.960966 31.184233 31.184233 31.184233 17.22736 0 31.188326-13.96199 31.188326-31.184233C659.488099 433.527764 645.527133 419.565774 628.299773 419.565774L628.299773 419.565774zM628.299773 419.565774" p-id="5221" data-spm-anchor-id="a313x.7781069.0.i5" class="selected" fill="#f4ea2a"></path></svg>