<?xml version="1.0" standalone="no"?><!DOCTYPE svg PUBLIC "-//W3C//DTD SVG 1.1//EN" "http://www.w3.org/Graphics/SVG/1.1/DTD/svg11.dtd"><svg t="1571360944707" class="icon" viewBox="0 0 1809 1024" version="1.1" xmlns="http://www.w3.org/2000/svg" p-id="15855" xmlns:xlink="http://www.w3.org/1999/xlink" width="113.0625" height="64"><defs><style type="text/css"></style></defs><path d="M1719.071326 396.237718c28.666285-25.119678 63.889967-32.850772 89.08619-34.840955L1808.157517 0 866.227014 0l0 0L0 0l0 361.537097c28.666285 2.079486 71.021455 10.563277 103.833954 40.046048 31.000923 27.8498 46.73102 67.41106 46.73102 117.637657 0 40.288442-13.267885 73.151971-39.433684 97.6848-32.238408 30.248225-76.80064 39.61229-106.296168 42.342412l0 364.752008 861.430164 0 75.652457 0 861.404649 0L1803.322393 658.546348c-25.84686-3.253183-63.124512-12.757581-91.586676-39.714351-26.586799-25.10692-40.058805-59.297238-40.058805-101.626893C1671.676912 464.452506 1687.623888 423.755821 1719.071326 396.237718zM280.296819 909.4497c-16.355219 0-29.597589-13.229612-29.597589-29.572074s13.242369-29.584831 29.597589-29.584831c16.316947 0 29.546558 13.242369 29.546558 29.584831S296.613766 909.4497 280.296819 909.4497zM280.296819 765.824849c-16.355219 0-29.597589-13.242369-29.597589-29.572074s13.242369-29.584831 29.597589-29.584831c16.316947 0 29.546558 13.255127 29.546558 29.584831S296.613766 765.824849 280.296819 765.824849zM280.296819 622.212756c-16.355219 0-29.597589-13.255127-29.597589-29.572074 0-16.355219 13.242369-29.584831 29.597589-29.584831 16.316947 0 29.546558 13.229612 29.546558 29.584831C309.843378 608.957629 296.613766 622.212756 280.296819 622.212756zM280.296819 478.613421c-16.355219 0-29.597589-13.255127-29.597589-29.584831 0-16.329704 13.242369-29.572074 29.597589-29.572074 16.316947 0 29.546558 13.255127 29.546558 29.572074C309.843378 465.371052 296.613766 478.613421 280.296819 478.613421zM280.296819 334.98857c-16.355219 0-29.597589-13.242369-29.597589-29.597589 0-16.329704 13.242369-29.572074 29.597589-29.572074 16.316947 0 29.546558 13.242369 29.546558 29.572074C309.843378 321.746201 296.613766 334.98857 280.296819 334.98857zM280.296819 191.376477c-16.355219 0-29.597589-13.255127-29.597589-29.597589 0-16.329704 13.242369-29.572074 29.597589-29.572074 16.316947 0 29.546558 13.255127 29.546558 29.572074C309.843378 178.12135 296.613766 191.376477 280.296819 191.376477zM680.157691 806.814958c0 60.254057-24.890041 91.216706-74.631851 92.88795-25.451375 1.097152-55.291357 1.365061-89.583736 0.816485-3.304214-23.20604-6.901851-46.450354-10.780156-69.669152 33.182469 3.329729 58.595571 4.988214 76.303094 4.988214 22.657464 0 33.998954-13.561309 33.998954-40.645654L615.463996 577.101949c-34.54753 11.048065-72.973365 23.486707-115.264747 37.303168l-9.121671-69.656394c38.706502-10.512247 80.168641-22.121646 124.386418-34.815439L615.463996 327.474355l-110.302048 0 0-57.243267 110.302048 0L615.463996 106.041016l64.693695 0 0 164.190072 102.851621 0 0 57.243267-102.851621 0 0 162.952586c29.584831-8.841004 60.266814-18.383675 92.071464-28.602497 0.535818 28.194255 1.097152 50.315901 1.645728 66.339423-25.15795 7.182518-56.388509 16.584856-93.717192 28.207012L680.157691 806.814958zM1317.079939 478.4093 1166.144994 478.4093l0 434.561493-66.339423 0L1099.805571 478.4093 894.969845 478.4093c-1.403334 199.043784-39.829169 345.53909-115.290262 439.536949-14.92637-16.584856-32.340469-33.731045-52.255053-51.413053 68.559242-80.717217 102.838863-209.811182 102.838863-387.294654L830.263393 164.917254c143.752426-0.535818 291.651067-12.157975 443.695921-34.828197l22.402313 64.693695c-164.77692 17.146189-298.565676 26.816436-401.391781 29.023498l0 193.226327 422.110093 0L1317.079939 478.4093zM1540.694824 909.4497c-16.329704 0-29.584831-13.229612-29.584831-29.572074s13.255127-29.584831 29.584831-29.584831 29.572074 13.242369 29.572074 29.584831S1557.024528 909.4497 1540.694824 909.4497zM1540.694824 765.824849c-16.329704 0-29.584831-13.242369-29.584831-29.572074s13.255127-29.584831 29.584831-29.584831 29.572074 13.255127 29.572074 29.584831S1557.024528 765.824849 1540.694824 765.824849zM1540.694824 622.212756c-16.329704 0-29.584831-13.255127-29.584831-29.572074 0-16.355219 13.255127-29.584831 29.584831-29.584831s29.572074 13.229612 29.572074 29.584831C1570.266898 608.957629 1557.024528 622.212756 1540.694824 622.212756zM1540.694824 478.613421c-16.329704 0-29.584831-13.255127-29.584831-29.584831 0-16.329704 13.255127-29.572074 29.584831-29.572074s29.572074 13.255127 29.572074 29.572074C1570.266898 465.371052 1557.024528 478.613421 1540.694824 478.613421zM1540.694824 334.98857c-16.329704 0-29.584831-13.242369-29.584831-29.597589 0-16.329704 13.255127-29.572074 29.584831-29.572074s29.572074 13.242369 29.572074 29.572074C1570.266898 321.746201 1557.024528 334.98857 1540.694824 334.98857zM1540.694824 191.376477c-16.329704 0-29.584831-13.255127-29.584831-29.597589 0-16.329704 13.255127-29.572074 29.584831-29.572074s29.572074 13.255127 29.572074 29.572074C1570.266898 178.12135 1557.024528 191.376477 1540.694824 191.376477z" p-id="15856" fill="#d81e06"></path></svg>